<svg width="49" height="17" viewBox="0 0 49 17" fill="none" xmlns="http://www.w3.org/2000/svg">
<path d="M2.5 0.499998C1.39543 0.499998 0.482949 1.40204 0.675146 2.48976C0.93724 3.97306 1.49174 5.42812 2.32689 6.81428C3.533 8.81615 5.30083 10.6351 7.52944 12.1673C9.75804 13.6994 12.4038 14.9148 15.3156 15.744C18.2274 16.5732 21.3483 17 24.5 17C27.6517 17 30.7726 16.5732 33.6844 15.744C36.5962 14.9148 39.242 13.6994 41.4706 12.1673C43.6992 10.6351 45.467 8.81615 46.6731 6.81428C47.5083 5.42812 48.0628 3.97306 48.3249 2.48976C48.5171 1.40204 47.6046 0.5 46.5 0.5H45.9884C44.8839 0.5 44.0086 1.40531 43.7735 2.48456C43.5389 3.56131 43.1138 4.61686 42.505 5.62731C41.5256 7.25286 40.0901 8.72988 38.2804 9.97403C36.4707 11.2182 34.3223 12.2051 31.9579 12.8784C29.5935 13.5517 27.0593 13.8983 24.5 13.8983C21.9407 13.8983 19.4065 13.5517 17.0421 12.8784C14.6777 12.2051 12.5293 11.2182 10.7196 9.97403C8.90992 8.72988 7.47442 7.25286 6.49503 5.62731C5.88624 4.61685 5.4611 3.56131 5.22653 2.48456C4.99141 1.4053 4.11613 0.499998 3.01156 0.499998H2.5Z" fill="#F97316"/>
</svg>
